<?xml version="1.0" encoding="UTF-8" standalone="no"?>
<svg xmlns:svg="http://www.w3.org/2000/svg" xmlns="http://www.w3.org/2000/svg" xmlns:xlink="http://www.w3.org/1999/xlink"
     version="1.1" width="1640px" height="1640px" viewBox="-50 -50 1640 1640" xml:space="preserve">
	<defs id="defs3">
		<symbol id="QU3W">
			<g style="fill :#FF3333; stroke :none;">
				<rect x="10" y="10" width="100" height="100" />
				<path d="M 28,10 L 35,0  L 42,10 z M 53,10 60,0  67,10 z M 78,10 L 85,0  L 92,10 z" />
				<path d="M 10,28 L 0,35  L 10,42 z M 10,53 0,60  10,67 z M 10,78 L 0,85  L 10,92 z" />
				<path d="M 28,110 L 35,120 L 42,110 z M 53,110 60,120  67,110 z M 78,110 L 85,120  L 92,110 z" />
				<path d="M 110,28 L 120,35 L 110,42 z M 110,53 120,60  110,67 z M 110,78 L 120,85  L 110,92 z" />
				<text style="font-family :sans-serif; font-size :15px; text-anchor :middle; fill :#000000; stroke :none; font-weight :bold;"><!--
				--><tspan x="60" y="35">DREI</tspan><!--
				--><tspan x="60" y="55">FACHER</tspan><!--
				--><tspan x="60" y="75">WORT</tspan><!--
				--><tspan x="60" y="95">WERT</tspan></text>
			</g>
		</symbol>
		<symbol id="QU2W">
			<g style="fill :#FFFF99; stroke :none;">
				<rect x="10" y="10" width="100" height="100" />
				<path d="M  38,10  L  45,0  L  52,10  z  M  68,10  L  75,0   L 82,10  z" />
				<path d="M  10,38  L  0,45  L  10,52  z  M  10,68  L   0,75  L 10,82  z" />
				<path d="M  38,110 L 45,120 L  52,110 z  M  68,110 L  75,120 L 82,110 z" />
				<path d="M 110,38  L 120,45 L 110,52  z  M 110,68  L 120,75  L 110,82 z" />
				<text style="font-family :sans-serif; font-size :15px; text-anchor :middle; fill :#000000; stroke :none; font-weight :bold;"><!--
				--><tspan x="60" y="45">DOPPELTER</tspan><!--
				--><tspan x="60" y="65">WORT</tspan><!--
				--><tspan x="60" y="85">WERT</tspan></text>
			</g>
		</symbol>
		<symbol id="QU3B">
			<g style="fill :#0099FF; stroke :none;">
				<rect x="10" y="10" width="100" height="100" />
				<path d="M 28,10 L 35,0  L 42,10 z M 53,10 60,0  67,10 z M 78,10 L 85,0  L 92,10 z" />
				<path d="M 10,28 L 0,35  L 10,42 z M 10,53 0,60  10,67 z M 10,78 L 0,85  L 10,92 z" />
				<path d="M 28,110 L 35,120 L 42,110 z M 53,110 60,120  67,110 z M 78,110 L 85,120  L 92,110 z" />
				<path d="M 110,28 L 120,35 L 110,42 z M 110,53 120,60  110,67 z M 110,78 L 120,85  L 110,92 z" />
				<text style="font-family :sans-serif; font-size :15px; text-anchor :middle; fill :#000000; stroke :none; font-weight :bold;"><!--
				--><tspan x="60" y="35">DREI</tspan><!--
				--><tspan x="60" y="55">FACHER</tspan><!--
				--><tspan x="60" y="75" style="font-size :12px;">BUCHSTABEN</tspan><!--
				--><tspan x="60" y="95">WERT</tspan></text>
			</g>
		</symbol>
		<symbol id="QU2B">
			<g style="fill :#66CCFF; stroke :none;">
				<rect x="10" y="10" width="100" height="100" />
				<path d="M  38,10  L  45,0  L  52,10  z  M  68,10  L  75,0   L 82,10  z" />
				<path d="M  10,38  L  0,45  L  10,52  z  M  10,68  L   0,75  L 10,82  z" />
				<path d="M  38,110 L 45,120 L  52,110 z  M  68,110 L  75,120 L 82,110 z" />
				<path d="M 110,38  L 120,45 L 110,52  z  M 110,68  L 120,75  L 110,82 z" />
				<text style="font-family :sans-serif; font-size :15px; text-anchor :middle; fill :#000000; stroke :none; font-weight :bold;"><!--
				--><tspan x="60" y="45">DOPPELTER</tspan><!--
				--><tspan x="60" y="65" style="font-size :12px;">BUCHSTABEN</tspan><!--
				--><tspan x="60" y="85">WERT</tspan></text>
			</g>
		</symbol>
		<symbol id="QUM">
			<g style="fill :#FFFF99; stroke :none;">
				<rect x="10" y="10" width="100" height="100" />
				<path d="M  38,10  L  45,0  L  52,10  z  M  68,10  L  75,0   L 82,10  z" />
				<path d="M  10,38  L  0,45  L  10,52  z  M  10,68  L   0,75  L 10,82  z" />
				<path d="M  38,110 L 45,120 L  52,110 z  M  68,110 L  75,120 L 82,110 z" />
				<path d="M 110,38  L 120,45 L 110,52  z  M 110,68  L 120,75  L 110,82 z" />
			</g>
			<polyline style="fill :#000000; stroke :none;" transform="translate(0,0)" points="100,60 78,68 88,88 68,78 60,100 52,78 32,88 42,68 20,60 42,52 32,32 52,42 60,20 68,42 88,32 78,52 100,60" />
		</symbol>
			
	</defs>
	<g id="layer1" transform="translate(10,10)">

		<rect x="-50" y="-50" width="1620" height="1620" style="fill :#ffffff; stroke :#000000; stroke-width :8;" />

		<rect x="10" y="10" width="1500" height="1500" style="fill :#009900; stroke :none;" />
		<use x="0"    y="0"    xlink:href="#QU3W" />  <use x="700"  y="0"    xlink:href="#QU3W" />  <use x="1400"  y="0"    xlink:href="#QU3W" />
		<use x="0"    y="700"  xlink:href="#QU3W" />  <use x="700"  y="700"  xlink:href="#QUM"  />  <use x="1400"  y="700"  xlink:href="#QU3W" />
		<use x="0"    y="1400" xlink:href="#QU3W" />  <use x="700"  y="1400" xlink:href="#QU3W" />  <use x="1400"  y="1400" xlink:href="#QU3W" />

		<use x="100"  y="100"  xlink:href="#QU2W" />  <use x="1300" y="100"  xlink:href="#QU2W" />
		<use x="200"  y="200"  xlink:href="#QU2W" />  <use x="1200" y="200"  xlink:href="#QU2W" />

 
		<use x="300"  y="300"  xlink:href="#QU2W" />  <use x="1100" y="300"  xlink:href="#QU2W" />
		<use x="400"  y="400"  xlink:href="#QU2W" />  <use x="1000" y="400"  xlink:href="#QU2W" />
		<use x="100"  y="1300" xlink:href="#QU2W" />  <use x="1300" y="1300" xlink:href="#QU2W" />
		<use x="200"  y="1200" xlink:href="#QU2W" />  <use x="1200" y="1200" xlink:href="#QU2W" />
		<use x="300"  y="1100" xlink:href="#QU2W" />  <use x="1100" y="1100" xlink:href="#QU2W" />
		<use x="400"  y="1000" xlink:href="#QU2W" />  <use x="1000" y="1000" xlink:href="#QU2W" />

		<use x="500"  y="100"  xlink:href="#QU3B" />  <use x="900"  y="100"  xlink:href="#QU3B" />
		<use x="100"  y="500"  xlink:href="#QU3B" />  <use x="500"  y="500"  xlink:href="#QU3B" />
		<use x="900"  y="500"  xlink:href="#QU3B" />  <use x="1300" y="500"  xlink:href="#QU3B" />

		<use x="100"  y="900"  xlink:href="#QU3B" />  <use x="500"  y="900"  xlink:href="#QU3B" />
		<use x="900"  y="900"  xlink:href="#QU3B" />  <use x="1300" y="900"  xlink:href="#QU3B" />
		<use x="500"  y="1300" xlink:href="#QU3B" />  <use x="900" y="1300"  xlink:href="#QU3B" />

		<use x="600"  y="600"  xlink:href="#QU2B" />  <use x="800"  y="800"  xlink:href="#QU2B" />
		<use x="600"  y="800"  xlink:href="#QU2B" />  <use x="800"  y="600"  xlink:href="#QU2B" />
		<use x="300"  y="0"    xlink:href="#QU2B" />  <use x="0"    y="300"  xlink:href="#QU2B" />
		<use x="1100" y="0"    xlink:href="#QU2B" />  <use x="0"    y="1100" xlink:href="#QU2B" />
		<use x="600"  y="200"  xlink:href="#QU2B" />  <use x="200"  y="600"  xlink:href="#QU2B" />
		<use x="800"  y="200"  xlink:href="#QU2B" />  <use x="200"  y="800"  xlink:href="#QU2B" />
		<use x="1400" y="300"  xlink:href="#QU2B" />  <use x="300"  y="1400" xlink:href="#QU2B" />
		<use x="700"  y="300"  xlink:href="#QU2B" />  <use x="300"  y="700"  xlink:href="#QU2B" />
		<use x="1200" y="600"  xlink:href="#QU2B" />  <use x="600"  y="1200" xlink:href="#QU2B" />
		<use x="1100" y="700"  xlink:href="#QU2B" />  <use x="700"  y="1100" xlink:href="#QU2B" />
		<use x="1200" y="800"  xlink:href="#QU2B" />  <use x="800"  y="1200" xlink:href="#QU2B" />
		<use x="1400" y="1100" xlink:href="#QU2B" />  <use x="1100" y="1400" xlink:href="#QU2B" />

		<rect x="10" y="10" width="1500" height="1500" style="fill :none; stroke :#000000; stroke-width :2.5;" />

		<path transform="translate(10,10)" 
		      d="M  100,0 L  100,1500 M  200,0 L  200,1500 M  300,0 L  300,1500 M  400,0 L  400,1500
				 M  500,0 L  500,1500 M  600,0 L  600,1500 M  700,0 L  700,1500 M  800,0 L  800,1500
				 M  900,0 L  900,1500 M 1000,0 L 1000,1500 M 1100,0 L 1100,1500 M 1200,0 L 1200,1500
				 M 1300,0 L 1300,1500 M 1400,0 L 1400,1500
		         M 0, 100 L 1500, 100 M 0, 200 L 1500, 200 M 0, 300 L 1500, 300 M 0, 400 L 1500, 400
				 M 0, 500 L 1500, 500 M 0, 600 L 1500, 600 M 0, 700 L 1500, 700 M 0, 800 L 1500, 800
				 M 0, 900 L 1500, 900 M 0,1000 L 1500,1000 M 0,1100 L 1500,1100 M 0,1200 L 1500,1200
				 M 0,1300 L 1500,1300 M 0,1400 L 1500,1400"
				style="fill :none; stroke :#000000; stroke-width :2.5;" />
	</g>
	<g id="textlayer" style="font-size :30px; font-family :sans-serif; text-anchor :middle;">
		<g id="LR" transform="translate(-10,50)">
			<text x="0" y="0"   >1</text>  <text x="1560" y="0"   >1</text>
			<text x="0" y="100" >2</text>  <text x="1560" y="100" >2</text>
			<text x="0" y="200" >3</text>  <text x="1560" y="200" >3</text>
			<text x="0" y="300" >4</text>  <text x="1560" y="300" >4</text>
			<text x="0" y="400" >5</text>  <text x="1560" y="400" >5</text>
			<text x="0" y="500" >6</text>  <text x="1560" y="500" >6</text>
			<text x="0" y="600" >7</text>  <text x="1560" y="600" >7</text>
			<text x="0" y="700" >8</text>  <text x="1560" y="700" >8</text>
			<text x="0" y="800" >9</text>  <text x="1560" y="800" >9</text>
			<text x="0" y="900" >10</text> <text x="1560" y="900" >10</text>
			<text x="0" y="1000">11</text> <text x="1560" y="1000">11</text>
			<text x="0" y="1100">12</text> <text x="1560" y="1100">12</text>
			<text x="0" y="1200">13</text> <text x="1560" y="1200">13</text>
			<text x="0" y="1300">14</text> <text x="1560" y="1300">14</text>
			<text x="0" y="1400">15</text> <text x="1560" y="1400">15</text>
		</g>
		<g id="OU" transform="translate(70,0)">
			<text x="0"    y="0">A</text> <text x="0"    y="1560">A</text>
			<text x="100"  y="0">B</text> <text x="100"  y="1560">B</text>
			<text x="200"  y="0">C</text> <text x="200"  y="1560">C</text>
			<text x="300"  y="0">D</text> <text x="300"  y="1560">D</text>
			<text x="400"  y="0">E</text> <text x="400"  y="1560">E</text>
			<text x="500"  y="0">F</text> <text x="500"  y="1560">F</text>
			<text x="600"  y="0">G</text> <text x="600"  y="1560">G</text>
			<text x="700"  y="0">H</text> <text x="700"  y="1560">H</text>
			<text x="800"  y="0">I</text> <text x="800"  y="1560">I</text>
			<text x="900"  y="0">J</text> <text x="900"  y="1560">J</text>
			<text x="1000" y="0">K</text> <text x="1000" y="1560">K</text>
			<text x="1100" y="0">L</text> <text x="1100" y="1560">L</text>
			<text x="1200" y="0">M</text> <text x="1200" y="1560">M</text>
			<text x="1300" y="0">N</text> <text x="1300" y="1560">N</text>
			<text x="1400" y="0">O</text> <text x="1400" y="1560">O</text>
		</g>
	</g>

</svg>